<?xml version="1.0" standalone="no"?>
<!DOCTYPE svg PUBLIC "-//W3C//DTD SVG 20010904//EN"
 "http://www.w3.org/TR/2001/REC-SVG-20010904/DTD/svg10.dtd">
<svg version="1.0" xmlns="http://www.w3.org/2000/svg"
 width="800.000000pt" height="800.000000pt" viewBox="0 0 800.000000 800.000000"
 preserveAspectRatio="xMidYMid meet">
<metadata>
Created by potrace 1.14, written by Peter Selinger 2001-2017
</metadata>
<g transform="translate(0.000000,800.000000) scale(0.100000,-0.100000)"
fill="#000000" stroke="none">
<path d="M96 7978 c-3 -14 0 -29 9 -37 12 -13 16 -11 25 13 5 15 13 25 17 23
5 -3 14 1 21 9 11 12 7 14 -26 14 -33 0 -41 -4 -46 -22z"/>
<path d="M7036 7984 c-9 -24 -2 -26 12 -4 7 11 8 20 3 20 -5 0 -12 -7 -15 -16z"/>
<path d="M7080 7985 c0 -17 12 -19 26 -5 14 14 46 1 40 -16 -4 -9 2 -14 15
-14 12 0 17 4 14 11 -4 6 1 17 11 24 17 13 12 14 -43 15 -50 0 -63 -3 -63 -15z"/>
<path d="M7210 7990 c0 -5 11 -17 25 -26 14 -9 25 -26 25 -38 0 -18 4 -17 30
14 l29 34 21 -21 c30 -32 25 -43 -19 -43 -31 0 -41 -4 -46 -20 -9 -30 2 -40
45 -40 39 0 39 -1 35 -32 -3 -18 -3 -27 1 -20 7 16 161 17 166 1 4 -13 78 -2
78 12 0 5 12 9 27 9 19 0 40 14 74 50 52 55 59 59 59 31 0 -10 7 -21 15 -25 8
-3 15 -14 15 -24 0 -24 23 -44 53 -47 12 -1 25 -3 29 -4 4 0 10 -10 13 -21 3
-11 12 -20 20 -20 14 0 26 -22 24 -48 -1 -10 -4 -6 -8 8 l-7 25 -31 -32 c-17
-18 -36 -33 -42 -33 -6 0 -11 -10 -10 -22 0 -16 2 -18 6 -8 8 21 24 30 56 30
17 0 27 -5 27 -15 0 -18 12 -19 28 -3 9 9 15 9 24 0 9 -9 7 -12 -10 -12 -25 0
-30 -18 -7 -26 8 -4 12 -10 9 -15 -3 -5 4 -9 14 -9 19 0 20 9 21 200 l2 200
-361 0 c-313 0 -360 -2 -360 -15 0 -8 -4 -15 -10 -15 -5 0 -10 7 -10 15 0 9
-9 15 -25 15 -14 0 -25 -4 -25 -10z m600 -60 c0 -5 -7 -10 -15 -10 -8 0 -15 5
-15 10 0 6 7 10 15 10 8 0 15 -4 15 -10z m-130 -50 c0 -5 -18 -10 -40 -10 -22
0 -40 5 -40 10 0 6 18 10 40 10 22 0 40 -4 40 -10z m-80 -30 c0 -5 -18 -10
-40 -10 -22 0 -40 5 -40 10 0 6 18 10 40 10 22 0 40 -4 40 -10z"/>
<path d="M40 7945 c0 -6 5 -16 12 -23 9 -9 8 -12 -4 -12 -9 0 -18 6 -21 13 -3
9 -7 9 -17 0 -9 -8 -7 -12 9 -18 12 -3 30 -3 42 0 18 6 20 4 14 -17 -6 -18 -5
-21 5 -11 8 7 10 19 5 30 -5 10 -7 22 -6 26 1 5 -4 5 -10 1 -6 -3 -15 0 -20 7
-5 8 -9 9 -9 4z"/>
<path d="M7300 7930 c0 -5 9 -10 20 -10 11 0 20 5 20 10 0 6 -9 10 -20 10 -11
0 -20 -4 -20 -10z"/>
<path d="M0 7743 l0 -148 37 0 38 0 -1 -62 c-2 -49 1 -60 12 -56 8 3 14 9 14
14 0 15 30 10 47 -6 8 -9 12 -19 8 -23 -4 -4 -10 -1 -12 6 -5 14 -43 16 -43 2
0 -5 -7 -10 -15 -10 -17 0 -19 -9 -5 -30 9 -14 16 -13 82 21 10 5 33 9 52 9
58 0 87 20 49 34 -9 4 -20 2 -23 -5 -5 -6 -17 -8 -29 -4 -25 8 -19 25 9 25 10
0 21 4 24 9 3 4 -7 6 -22 4 -25 -4 -26 -3 -7 8 41 25 44 44 10 53 -14 4 -25
12 -25 20 0 21 27 38 48 32 13 -4 27 3 45 24 22 25 27 39 27 85 l0 55 -40 0
c-34 0 -40 -3 -40 -21 0 -20 -4 -21 -65 -17 -50 3 -65 1 -65 -10 0 -10 -4 -9
-17 4 -13 13 -14 19 -5 22 14 4 16 42 2 42 -5 0 -10 6 -10 14 0 8 -13 20 -30
28 -16 7 -30 16 -30 20 0 5 -4 8 -10 8 -6 0 -10 -56 -10 -147z m270 -79 c0 -8
-4 -12 -10 -9 -5 3 -10 10 -10 16 0 5 5 9 10 9 6 0 10 -7 10 -16z m-140 -124
c0 -11 -4 -20 -10 -20 -5 0 -10 9 -10 20 0 11 5 20 10 20 6 0 10 -9 10 -20z"/>
<path d="M120 7882 c0 -7 -7 -12 -15 -12 -8 0 -15 -7 -15 -15 0 -8 2 -15 4
-15 2 0 12 -3 20 -6 13 -5 15 -2 9 12 -6 17 -5 17 10 5 18 -14 47 -9 47 9 0 5
-8 10 -18 10 -10 0 -23 5 -30 12 -9 9 -12 9 -12 0z"/>
<path d="M198 7843 c7 -3 16 -2 19 1 4 3 -2 6 -13 5 -11 0 -14 -3 -6 -6z"/>
<path d="M3348 7840 c-27 -5 -77 -18 -113 -30 -56 -19 -70 -20 -98 -10 -130
50 -365 12 -547 -87 -71 -38 -182 -120 -245 -180 -70 -66 -348 -366 -407 -438
-325 -400 -528 -953 -528 -1438 0 -76 5 -169 11 -206 14 -85 2 -121 -99 -300
l-71 -123 -7 38 c-10 51 -10 86 -2 159 l7 60 -14 -40 c-16 -49 -19 -161 -4
-203 9 -27 6 -38 -30 -105 -72 -131 -96 -275 -66 -403 48 -209 169 -307 335
-271 35 7 35 7 75 -59 67 -111 189 -207 333 -262 59 -23 82 -26 192 -26 116
-1 170 8 253 39 9 4 20 -15 36 -62 13 -37 30 -84 39 -103 9 -19 21 -55 28 -80
l12 -45 12 30 c6 17 10 51 7 78 -2 26 -3 46 -1 45 1 -2 16 -21 33 -42 l31 -39
-26 -46 c-15 -25 -36 -56 -47 -69 -30 -33 -135 -82 -175 -82 -47 0 -97 26
-112 58 -17 36 -25 12 -10 -33 35 -105 177 -133 321 -63 83 41 131 58 141 52
5 -3 7 -2 6 3 -1 4 32 42 74 84 72 71 75 73 56 35 -12 -23 -33 -56 -47 -75
-27 -36 -110 -81 -148 -81 -13 0 -23 -4 -23 -10 0 -6 26 -10 58 -10 111 0 232
81 332 223 l48 68 20 -28 c60 -86 102 -203 102 -289 l0 -52 -48 -20 c-65 -28
-121 -40 -163 -35 -26 3 -30 2 -19 -6 26 -18 102 -12 165 14 33 14 61 25 62
25 8 0 -22 -59 -39 -77 -12 -13 -17 -23 -11 -23 13 0 61 55 75 86 9 20 14 21
47 12 20 -6 70 -8 113 -6 60 4 91 11 142 37 79 39 110 76 142 173 l25 73 -5
-62 c-4 -65 -32 -138 -53 -138 -6 0 -15 -4 -20 -9 -5 -5 -3 -6 5 -2 21 12 13
-12 -10 -28 -12 -9 -19 -19 -15 -22 12 -13 99 87 124 143 14 31 29 82 32 114
4 32 10 62 14 65 4 4 7 3 7 -2 0 -5 7 -49 14 -99 17 -113 21 -271 6 -280 -5
-3 -10 -12 -10 -18 0 -7 4 -6 10 3 8 12 10 12 10 -5 0 -31 -54 -137 -91 -180
-68 -77 -294 -207 -524 -301 -197 -80 -167 -74 -337 -63 -84 5 -187 17 -228
26 -53 12 -117 17 -215 16 -165 -1 -248 -19 -383 -85 -74 -36 -103 -58 -192
-148 -152 -151 -191 -247 -211 -510 -14 -186 4 -372 52 -535 27 -91 100 -232
150 -288 33 -38 39 -52 39 -89 0 -57 34 -178 70 -252 29 -57 46 -135 85 -396
16 -107 48 -259 88 -430 l23 -95 403 -3 404 -2 -8 37 c-4 21 -9 180 -10 353
-1 173 -5 344 -9 380 l-6 65 19 -57 c22 -67 120 -262 164 -328 33 -50 159
-202 218 -265 36 -38 42 -53 64 -157 l5 -28 1010 0 1010 0 5 23 c2 12 12 64
20 116 14 80 21 100 55 145 61 81 150 237 239 420 45 93 84 166 88 163 3 -3
-22 -58 -56 -122 l-61 -117 10 -274 c5 -150 13 -291 16 -313 l6 -40 378 -1
378 0 6 167 c4 93 11 204 17 248 16 133 18 147 25 230 4 49 2 103 -6 140 -24
117 -27 146 -17 152 5 3 19 27 32 54 12 27 25 46 28 43 9 -10 57 5 57 17 0 25
73 108 145 164 42 33 113 79 158 103 91 48 183 115 198 144 6 11 46 56 90 100
69 70 85 94 115 167 54 130 99 196 206 305 92 92 97 100 83 117 -15 16 -15 18
5 24 33 11 47 44 54 131 5 67 2 93 -18 160 -21 71 -31 132 -63 394 -8 68 -8
69 1 112 9 39 -9 77 -59 128 -94 95 -153 169 -207 255 -30 50 -58 100 -62 113
-6 18 -12 21 -29 16 -68 -20 -107 -82 -107 -169 0 -62 21 -112 96 -227 28 -43
44 -78 44 -98 0 -37 16 -70 33 -70 7 0 20 -32 30 -73 22 -90 25 -392 5 -384
-7 2 -12 9 -11 15 2 6 -4 9 -12 6 -9 -4 -39 18 -79 58 -71 70 -86 104 -86 200
0 56 0 56 -117 212 -70 94 -123 156 -133 156 -25 0 -66 -35 -80 -70 -14 -35
-24 -37 -46 -11 -9 11 -34 38 -55 61 -38 41 -41 42 -89 38 -34 -4 -59 -13 -75
-28 -23 -22 -29 -23 -77 -13 -29 6 -73 19 -98 28 -32 12 -58 15 -90 10 -25 -4
-135 -9 -245 -10 -175 -2 -213 -5 -306 -28 -119 -28 -237 -83 -317 -147 -131
-104 -181 -343 -118 -555 39 -130 147 -338 240 -464 45 -59 151 -178 242 -269
90 -89 149 -154 131 -145 -55 31 -291 275 -375 388 -107 145 -223 373 -258
510 -31 121 -29 243 5 340 l21 60 -32 28 c-18 15 -87 68 -153 117 -249 185
-275 206 -314 258 -22 29 -49 77 -59 105 -20 55 -57 312 -67 458 l-5 87 39
-39 c34 -34 82 -55 66 -29 -3 6 -12 10 -19 10 -19 0 -62 51 -74 88 -14 41 -3
41 23 0 11 -18 34 -40 52 -50 40 -24 124 -34 160 -20 59 23 76 20 85 -16 15
-55 -6 -168 -42 -225 -36 -59 -34 -74 3 -20 48 69 81 155 85 219 l4 61 76 6
76 6 57 -62 57 -62 123 0 c110 0 129 3 172 23 26 13 47 28 47 33 0 5 -19 0
-42 -12 -52 -27 -164 -36 -226 -19 -29 7 -59 27 -89 56 -25 25 -43 47 -41 49
2 2 32 -3 68 -12 78 -18 234 -13 325 12 67 18 150 67 167 98 9 18 6 17 -22 -6
-33 -28 -71 -50 -115 -67 -38 -14 -30 -5 19 24 24 14 46 32 49 40 4 9 -7 6
-30 -10 -65 -44 -165 -56 -258 -33 -90 23 -195 145 -195 227 0 46 89 287 102
274 3 -4 18 -46 33 -94 37 -120 33 -203 -13 -279 l-32 -54 33 37 c68 76 74
167 21 324 l-36 106 16 63 c17 68 53 138 66 130 4 -3 6 4 3 15 -3 11 0 20 6
20 6 0 11 -11 11 -24 0 -14 13 -62 30 -108 27 -78 28 -84 12 -96 -12 -10 -35
-12 -76 -9 -44 4 -56 3 -47 -6 8 -7 43 -12 90 -11 76 1 78 0 90 -27 20 -47 96
-123 150 -152 67 -37 135 -44 180 -19 19 10 37 24 39 31 2 6 -11 3 -30 -9 -85
-52 -228 7 -304 126 -19 29 -34 56 -34 59 0 12 86 42 123 43 80 3 142 57 201
174 25 51 48 107 52 123 3 17 14 41 25 54 17 20 23 22 47 13 15 -6 57 -18 94
-26 66 -15 98 -13 98 6 0 5 -5 6 -10 3 -15 -9 -113 22 -143 45 -23 18 -25 24
-15 44 l10 24 62 -29 c120 -57 228 -22 251 83 4 16 18 46 31 65 25 37 29 73
14 108 -6 15 -9 7 -10 -30 0 -27 -7 -59 -15 -69 -8 -11 -15 -15 -15 -10 0 6
-7 19 -15 30 -13 17 -14 16 -8 -18 4 -30 2 -38 -18 -51 -36 -24 -114 -40 -154
-33 -53 10 -68 41 -66 139 0 45 -3 100 -8 121 -7 29 -6 42 4 52 17 18 29 137
28 294 0 114 -16 220 -47 325 -4 11 13 -18 36 -64 37 -74 42 -94 46 -169 3
-47 -1 -116 -8 -154 -6 -38 -10 -72 -7 -75 3 -3 16 26 28 64 34 103 38 265 9
374 -12 46 -34 111 -50 144 -15 33 -31 75 -34 93 -17 96 -122 245 -208 295
-24 13 -88 39 -143 57 -149 49 -229 93 -311 175 -39 38 -79 86 -89 105 -22 43
-179 279 -252 378 -172 233 -446 443 -753 574 -246 106 -464 149 -734 147 -66
-1 -142 -5 -168 -9z m-268 -41 c27 -6 50 -14 50 -17 0 -10 -101 -52 -125 -53
-11 0 -33 -6 -50 -13 -22 -9 -36 -10 -53 -3 -66 30 -258 -40 -394 -142 -37
-28 -107 -74 -155 -102 -48 -27 -99 -60 -113 -72 -14 -12 16 20 65 71 50 51
119 115 155 142 199 148 451 225 620 189z m-200 -117 c-14 -9 -50 -41 -82 -72
l-56 -55 -59 3 c-39 2 -85 -5 -143 -22 -96 -28 -94 -24 32 60 109 72 190 102
283 102 50 1 50 1 25 -16z m30 -19 c-14 -9 -52 -39 -84 -67 -45 -39 -55 -44
-41 -23 19 29 120 107 139 107 6 0 -1 -8 -14 -17z m-860 -475 c-49 -74 -142
-285 -204 -463 -58 -169 -96 -308 -151 -555 -9 -41 -41 -131 -70 -200 -44
-105 -96 -235 -118 -300 -10 -28 -7 34 8 170 45 405 112 662 239 923 80 166
207 354 228 341 6 -4 8 -2 5 3 -4 6 12 34 35 62 47 58 61 67 28 19z m1820 -28
c8 -5 11 -10 5 -10 -5 0 -17 5 -25 10 -8 5 -10 10 -5 10 6 0 17 -5 25 -10z
m85 -40 c3 -6 -1 -7 -9 -4 -18 7 -21 14 -7 14 6 0 13 -4 16 -10z m-2241 -407
c-36 -79 -81 -202 -110 -298 -50 -164 -105 -500 -119 -725 -4 -58 -13 -127
-21 -154 -8 -27 -14 -63 -15 -80 l-1 -31 -9 30 c-16 50 -13 339 5 460 42 278
127 541 262 807 34 67 39 60 8 -9z m2106 -349 c0 -2 -13 2 -30 11 -16 9 -30
18 -30 21 0 2 14 -2 30 -11 17 -9 30 -18 30 -21z m-45 -12 c-3 -3 -11 0 -18 7
-9 10 -8 11 6 5 10 -3 15 -9 12 -12z m1994 -27 c37 -20 87 -56 112 -82 l44
-46 -64 51 c-35 28 -89 64 -120 81 -31 17 -52 31 -47 31 4 0 38 -16 75 -35z
m-1890 -21 c14 -12 -19 -1 -35 12 -18 14 -18 14 6 3 14 -6 27 -13 29 -15z
m-359 6 c0 -5 15 -10 33 -10 17 0 52 -6 77 -14 25 -7 51 -11 57 -9 7 3 28 -5
47 -16 18 -12 41 -21 51 -21 30 0 134 -36 204 -70 16 -8 21 -9 17 -1 -9 14 8
14 34 1 11 -5 29 -14 40 -20 11 -5 35 -10 54 -10 44 0 66 -9 66 -26 0 -8 9
-14 20 -14 11 0 23 -7 26 -15 4 -8 10 -12 15 -9 5 3 7 10 4 15 -4 5 -1 9 4 9
16 0 13 -82 -4 -124 -15 -35 -16 -53 -4 -49 4 1 4 -7 1 -19 -5 -21 -6 -21 -12
-2 -5 14 -10 5 -19 -34 -13 -64 -14 -71 -1 -52 7 11 10 6 10 -20 0 -19 -4 -30
-8 -23 -4 6 -8 -68 -8 -165 -1 -106 1 -159 6 -132 7 44 7 44 8 9 2 -37 37
-116 67 -149 23 -25 31 -25 31 -1 0 11 -5 17 -11 14 -5 -4 -2 3 8 14 10 11 17
24 16 29 -1 5 0 32 1 59 2 30 5 40 7 25 9 -46 16 -48 156 -46 121 1 137 4 188
28 48 23 60 35 85 82 16 30 30 53 32 51 2 -2 -4 -18 -13 -37 -50 -97 -101
-131 -217 -143 -37 -4 -65 -11 -62 -16 3 -5 -12 -10 -33 -11 l-38 -1 40 -6
c39 -5 38 -5 -20 -11 -58 -6 -57 -7 28 -8 82 -2 89 -4 112 -29 29 -33 31 -43
8 -44 -20 -1 -12 -4 30 -13 15 -4 27 -11 27 -17 0 -6 -9 -9 -20 -6 -28 7 -35
-10 -10 -23 31 -16 25 -33 -10 -25 -16 4 -39 3 -51 0 -20 -7 -20 -7 6 -21 22
-12 31 -12 43 -2 13 10 14 10 8 1 -5 -9 0 -13 18 -13 14 0 28 -4 31 -10 3 -5
0 -10 -7 -10 -8 0 -24 -7 -37 -16 -17 -12 -20 -19 -11 -28 9 -8 16 -5 30 12
10 12 23 22 29 22 5 0 14 7 19 15 5 10 15 13 25 9 21 -8 13 -22 -20 -35 -14
-5 -21 -14 -17 -20 7 -11 55 -8 88 6 16 7 17 6 7 -13 -18 -34 -13 -35 19 -2
16 16 34 30 40 30 14 0 40 -25 40 -39 0 -15 6 -14 35 5 29 19 33 9 8 -18 -13
-15 -14 -18 -1 -18 20 0 8 -90 -30 -230 -22 -81 -26 -112 -19 -134 6 -17 6
-31 0 -35 -11 -7 -12 -51 -1 -51 4 0 8 -5 8 -11 0 -5 -4 -7 -10 -4 -5 3 -10
-3 -10 -14 0 -10 -4 -21 -9 -23 -5 -1 -13 -15 -16 -30 -6 -23 -4 -27 13 -25
13 1 18 7 15 18 -3 10 3 22 16 28 12 7 21 17 21 24 0 8 -4 7 -11 -3 -9 -13
-10 -13 -6 0 2 8 9 15 16 15 12 0 31 23 31 38 0 5 -6 5 -12 1 -7 -4 -5 2 5 13
9 11 17 25 17 31 0 7 5 12 10 12 6 0 10 7 10 15 0 8 4 15 9 15 16 0 -19 -80
-158 -358 -76 -152 -157 -300 -179 -329 -49 -62 -117 -98 -219 -115 -56 -9
-77 -9 -98 0 -14 7 -38 11 -53 11 l-27 -1 30 -8 c56 -14 -84 -11 -205 5 -268
35 -351 57 -506 129 -160 76 -364 225 -489 358 -50 53 -28 35 73 -57 58 -54
101 -85 117 -85 6 1 -3 8 -18 16 -16 8 -25 20 -21 26 4 7 3 8 -5 4 -16 -10
-43 13 -37 31 3 8 2 11 -3 8 -5 -3 -12 -1 -15 4 -14 22 68 -18 85 -42 3 -5 8
-8 10 -7 8 3 57 -19 63 -29 4 -5 23 -15 44 -21 33 -11 137 -56 184 -81 10 -5
28 -9 41 -9 13 0 28 -5 34 -11 12 -12 83 -2 83 12 0 5 -9 17 -20 26 -12 11
-20 30 -20 48 0 39 -34 111 -60 127 -11 7 -20 23 -20 35 0 16 -11 28 -40 43
-22 11 -40 27 -40 34 0 8 -6 17 -12 20 -7 3 -1 3 13 0 15 -3 30 -1 33 4 7 12
-45 23 -59 13 -13 -10 -106 -33 -112 -28 -2 3 16 9 41 16 24 6 57 21 73 34 35
29 93 58 103 52 4 -3 13 2 20 10 10 12 8 16 -15 25 -14 5 -31 10 -38 10 -6 0
4 12 21 27 24 20 29 29 20 35 -10 6 -9 11 5 19 21 12 22 29 2 29 -8 0 -15 5
-15 10 0 14 27 12 33 -2 3 -10 8 -9 20 2 13 13 14 18 3 33 -11 14 -19 16 -40
7 -38 -14 -56 -13 -56 5 0 9 9 15 23 15 34 1 56 22 46 46 -6 18 -18 22 -68 26
-82 6 -105 30 -48 51 7 2 14 24 16 52 1 6 24 26 53 44 44 29 49 35 33 41 -19
7 -19 7 0 19 18 11 18 12 2 7 -10 -3 -23 -6 -28 -6 -6 0 -7 -4 -4 -10 3 -5 -2
-10 -12 -10 -10 0 -30 -7 -43 -16 -14 -9 -2 3 25 27 125 109 151 145 35 48
-62 -52 -115 -89 -126 -89 -4 0 13 14 37 31 24 18 72 56 106 85 33 30 70 54
81 54 11 0 28 7 37 16 15 15 14 18 -1 43 -9 14 -27 37 -40 51 l-23 25 25 1
c13 1 24 -2 24 -8 0 -5 -4 -6 -10 -3 -5 3 -10 2 -10 -2 0 -11 37 -33 44 -26 3
3 0 15 -6 27 -10 19 -10 20 6 7 18 -15 48 -22 100 -25 30 -1 30 -1 68 76 4 10
8 25 8 33 0 8 6 15 13 15 8 1 7 5 -4 13 -9 7 -14 18 -11 25 2 7 -10 36 -27 63
-16 27 -28 55 -25 63 3 8 1 17 -5 21 -7 3 -8 0 -5 -9 11 -29 -3 -17 -31 27
-15 23 -41 53 -57 65 -15 13 -27 31 -26 40 2 11 -3 16 -14 14 -9 -1 -19 2 -23
8 -3 6 0 7 9 4 9 -3 16 -1 16 6 0 6 5 8 10 5 14 -9 12 11 -4 44 -27 52 -32 53
-176 36 -154 -18 -195 -18 -95 0 46 8 60 13 40 15 -16 1 -34 1 -40 0 -5 -2
-25 -3 -44 -4 -25 -1 -35 3 -39 16 -2 10 -8 16 -12 13 -4 -3 -22 -2 -40 1 -20
5 -27 10 -19 15 10 6 9 13 -4 33 -21 31 -22 46 -3 46 9 0 15 15 17 44 2 24 1
42 -3 39 -12 -7 -9 11 7 51 9 20 20 34 25 31 6 -4 10 7 10 25 0 17 4 29 9 26
4 -3 17 10 27 29 10 19 25 35 34 35 8 0 29 9 45 19 34 22 55 26 55 11z m-203
-52 c-3 -8 -6 -5 -6 6 -1 11 2 17 5 13 3 -3 4 -12 1 -19z m-112 -65 c-5 -15
-7 -35 -6 -43 1 -12 0 -12 -7 -1 -6 8 -5 26 1 47 12 40 23 37 12 -3z m102 15
c-3 -8 -6 -5 -6 6 -1 11 2 17 5 13 3 -3 4 -12 1 -19z m803 2 c8 -5 11 -10 5
-10 -5 0 -17 5 -25 10 -8 5 -10 10 -5 10 6 0 17 -5 25 -10z m-949 -34 c-14
-36 -22 -33 -9 5 6 16 12 28 14 26 3 -2 0 -16 -5 -31z m131 -18 c-8 -8 -9 -4
-5 13 4 13 8 18 11 10 2 -7 -1 -18 -6 -23z m778 22 c13 -8 13 -10 -2 -10 -9 0
-20 5 -23 10 -8 13 5 13 25 0z m125 0 c13 -6 15 -9 5 -9 -8 0 -22 4 -30 9 -18
12 -2 12 25 0z m-78 -16 c-3 -3 -12 -4 -19 -1 -8 3 -5 6 6 6 11 1 17 -2 13 -5z
m-998 -64 c-13 -22 -34 -50 -47 -62 -15 -14 -8 1 19 40 49 71 61 80 28 22z
m45 -31 c-26 -46 -98 -119 -111 -111 -3 2 -10 -3 -16 -11 -7 -8 -25 -23 -42
-33 -19 -11 -2 11 45 62 42 43 86 93 99 109 l23 30 -17 -30 c-10 -16 -29 -42
-43 -57 -14 -15 -23 -30 -20 -33 9 -10 65 55 84 97 9 21 19 36 22 34 2 -3 -9
-28 -24 -57z m116 53 c0 -5 -7 -17 -15 -28 -14 -18 -14 -17 -4 9 12 27 19 34
19 19z m2531 -210 c99 -124 157 -236 191 -371 16 -65 17 -85 7 -162 -7 -49
-14 -89 -18 -89 -11 0 -53 114 -87 240 -33 119 -134 345 -234 520 l-31 55 57
-60 c32 -33 83 -92 115 -133z m-2788 137 c-10 -17 -24 -36 -32 -42 -8 -7 -2 7
14 31 32 49 45 57 18 11z m227 11 c0 -5 -5 -10 -11 -10 -5 0 -7 5 -4 10 3 6 8
10 11 10 2 0 4 -4 4 -10z m-29 -37 c-5 -10 -24 -31 -42 -48 -29 -27 -29 -25 7
17 42 51 50 58 35 31z m-259 -60 c-11 -16 -29 -36 -41 -47 -11 -10 -18 -24
-14 -30 3 -6 3 -8 -2 -4 -4 4 -16 -3 -27 -15 -17 -19 -18 -19 -6 -1 15 23 101
124 106 124 2 0 -5 -12 -16 -27z m48 13 c0 -2 -8 -10 -17 -17 -16 -13 -17 -12
-4 4 13 16 21 21 21 13z m-50 -49 c0 -2 -10 -12 -22 -23 l-23 -19 19 23 c18
21 26 27 26 19z m83 -22 c-6 -16 -81 -60 -89 -52 -3 3 76 59 93 66 1 1 0 -6
-4 -14z m317 -25 c0 -5 -11 -10 -24 -10 -14 0 -28 5 -31 10 -4 6 7 10 24 10
17 0 31 -4 31 -10z m887 -32 c-3 -7 -5 -2 -5 12 0 14 2 19 5 13 2 -7 2 -19 0
-25z m-2668 -52 c-12 -31 -24 -55 -26 -53 -2 2 6 30 18 61 12 31 24 55 26 53
2 -2 -6 -30 -18 -61z m1361 50 c0 -2 -27 -20 -61 -40 -33 -20 -57 -31 -54 -26
4 6 30 24 58 40 54 31 57 32 57 26z m423 -3 c-7 -2 -19 -2 -25 0 -7 3 -2 5 12
5 14 0 19 -2 13 -5z m-56 -9 c-3 -3 -12 -4 -19 -1 -8 3 -5 6 6 6 11 1 17 -2
13 -5z m-40 -10 c-3 -3 -12 -4 -19 -1 -8 3 -5 6 6 6 11 1 17 -2 13 -5z m-97
-24 c-8 -5 -19 -10 -25 -10 -5 0 -3 5 5 10 8 5 20 10 25 10 6 0 3 -5 -5 -10z
m-1656 -194 c-21 -63 -39 -114 -42 -112 -2 2 13 57 33 121 20 64 38 115 41
112 3 -2 -12 -57 -32 -121z m3233 92 c-3 -8 -6 -5 -6 6 -1 11 2 17 5 13 3 -3
4 -12 1 -19z m-227 2 c0 -5 -7 -10 -16 -10 -8 0 -12 5 -9 10 3 6 10 10 16 10
5 0 9 -4 9 -10z m275 -79 c-10 -59 -63 -124 -124 -149 -51 -23 -141 -28 -191
-12 l-25 8 25 1 c22 1 20 4 -15 21 -51 24 -75 44 -75 61 0 8 9 3 23 -13 33
-39 60 -49 132 -49 69 -1 91 8 150 60 17 14 24 19 18 11 -18 -19 -16 -26 6
-27 11 -1 19 4 17 10 -1 7 -1 8 2 4 2 -4 10 0 17 10 10 13 10 22 3 31 -8 9 -7
11 6 6 9 -4 16 -3 15 2 -3 14 13 75 18 70 3 -3 2 -23 -2 -45z m-397 -167 c-10
-10 -28 6 -28 24 0 15 1 15 17 -1 9 -9 14 -19 11 -23z m-788 -19 c13 -14 21
-25 18 -25 -2 0 -15 11 -28 25 -13 14 -21 25 -18 25 2 0 15 -11 28 -25z m50
-10 c13 -14 21 -25 18 -25 -2 0 -15 11 -28 25 -13 14 -21 25 -18 25 2 0 15
-11 28 -25z m1020 -25 c-20 -13 -33 -13 -25 0 3 6 14 10 23 10 15 0 15 -2 2
-10z m-50 -9 c0 -5 -9 -7 -20 -4 -11 3 -20 7 -20 9 0 2 9 4 20 4 11 0 20 -4
20 -9z m-874 -31 c0 -12 -4 -16 -9 -11 -5 5 -6 14 -3 20 10 15 12 14 12 -9z
m-225 -30 c16 -28 26 -37 34 -30 7 5 15 7 19 3 13 -13 25 20 15 41 -9 18 -7
17 10 -3 12 -13 21 -28 21 -35 0 -6 -5 -4 -10 4 -5 8 -10 10 -10 5 0 -6 9 -18
19 -27 17 -14 18 -22 11 -50 -13 -45 -119 -144 -188 -176 -97 -44 -236 -20
-302 54 l-25 27 35 -25 c64 -47 96 -58 162 -57 44 0 57 3 43 9 -14 6 -15 9 -4
9 8 1 20 -4 26 -10 12 -12 49 6 58 29 3 9 -1 9 -17 -3 -13 -8 -27 -15 -32 -15
-6 0 11 13 37 30 64 40 87 81 87 152 0 31 -4 68 -10 82 -14 38 -4 32 21 -14z
m2464 -181 c6 -57 5 -71 -5 -63 -10 10 -52 238 -49 269 3 30 49 -143 54 -206z
m-2696 147 c-12 -13 -34 8 -25 23 5 8 11 7 21 -2 8 -7 10 -16 4 -21z m386 -16
c15 -17 16 -20 3 -20 -9 0 -18 9 -21 20 -3 11 -4 20 -3 20 2 0 11 -9 21 -20z
m-865 -164 c0 -12 -5 -7 -19 24 -11 24 -11 24 3 6 9 -11 16 -24 16 -30z m457
-26 c27 -8 27 -8 3 -9 -15 0 -41 13 -65 35 l-40 36 37 -27 c20 -14 49 -30 65
-35z m1663 50 c0 -5 -4 -10 -10 -10 -5 0 -10 5 -10 10 0 6 5 10 10 10 6 0 10
-4 10 -10z m-1577 -127 c-13 -2 -33 -2 -45 0 -13 2 -3 4 22 4 25 0 35 -2 23
-4z m149 -30 c-10 -4 -10 -8 -1 -19 9 -11 8 -14 -4 -14 -8 0 -17 6 -20 14 -6
14 7 24 28 24 6 0 4 -2 -3 -5z m2032 -93 c17 -53 28 -163 16 -155 -8 5 -41
136 -54 215 -5 35 -5 35 9 10 8 -14 21 -45 29 -70z m-2664 60 c6 -11 8 -20 6
-20 -3 0 -10 9 -16 20 -6 11 -8 20 -6 20 3 0 10 -9 16 -20z m50 -5 c14 -19 14
-19 -2 -6 -10 7 -18 18 -18 24 0 6 1 8 3 6 1 -2 9 -13 17 -24z m2994 8 c4 -9
2 -21 -4 -27 -7 -7 -10 -7 -10 1 0 6 -3 18 -6 27 -3 9 -2 16 4 16 5 0 13 -8
16 -17z m-2914 -87 c0 5 4 4 8 -1 6 -9 97 -78 148 -113 16 -10 15 -11 -6 -1
-42 20 -173 115 -200 146 -18 20 -15 19 13 -6 20 -19 37 -31 37 -25z m2037 -8
c-3 -7 -5 -2 -5 12 0 14 2 19 5 13 2 -7 2 -19 0 -25z m810 -10 c-3 -7 -5 -2
-5 12 0 14 2 19 5 13 2 -7 2 -19 0 -25z m-2752 -8 c10 -11 16 -20 13 -20 -3 0
-13 9 -23 20 -10 11 -16 20 -13 20 3 0 13 -9 23 -20z m505 15 c0 -7 -58 -35
-72 -35 -7 1 3 9 22 20 35 19 50 24 50 15z m1925 -132 c29 -26 31 -46 8 -126
-16 -57 -66 -127 -91 -127 -12 0 -72 176 -72 210 0 11 19 56 42 100 l41 79 23
-57 c13 -31 35 -67 49 -79z m-505 57 c-6 -23 -13 -40 -15 -38 -2 2 1 23 7 46
6 24 13 41 15 38 2 -2 -1 -23 -7 -46z m-1741 -66 c14 -12 -19 -1 -35 12 -18
14 -18 14 6 3 14 -6 27 -13 29 -15z m-2010 -203 c31 -48 102 -120 171 -174
l35 -27 -42 0 c-23 0 -54 5 -70 11 -46 17 -103 80 -139 153 -37 77 -50 138
-39 193 l7 38 23 -72 c12 -40 37 -95 54 -122z m2277 174 c9 -8 11 -15 6 -15
-5 0 -15 7 -22 15 -7 8 -9 15 -6 15 4 0 14 -7 22 -15z m-219 -31 c-3 -3 -12
-4 -19 -1 -8 3 -5 6 6 6 11 1 17 -2 13 -5z m151 -1 c-10 -2 -28 -2 -40 0 -13
2 -5 4 17 4 22 1 32 -1 23 -4z m10 -30 c-10 -2 -28 -2 -40 0 -13 2 -5 4 17 4
22 1 32 -1 23 -4z m-368 -49 c0 -2 -13 2 -30 11 -16 9 -30 18 -30 21 0 2 14
-2 30 -11 17 -9 30 -18 30 -21z m400 26 c0 -5 -2 -10 -4 -10 -3 0 -8 5 -11 10
-3 6 -1 10 4 10 6 0 11 -4 11 -10z m-325 -62 c5 -5 -5 -3 -23 3 -18 6 -35 15
-38 20 -6 10 45 -10 61 -23z m285 13 c0 -16 -57 -32 -96 -28 -37 3 -36 4 9 5
29 1 46 6 42 12 -3 5 0 7 8 4 8 -3 18 -1 22 5 8 13 15 14 15 2z m-153 -17 c-3
-3 -12 -4 -19 -1 -8 3 -5 6 6 6 11 1 17 -2 13 -5z m-87 -14 c8 -5 11 -10 5
-10 -5 0 -17 5 -25 10 -8 5 -10 10 -5 10 6 0 17 -5 25 -10z m109 -26 c10 -9
-55 -3 -69 6 -10 6 -2 7 25 3 22 -3 42 -7 44 -9z m-1261 -319 c56 -37 101 -70
99 -72 -8 -7 -228 36 -242 47 -15 12 -55 111 -55 135 0 17 43 -7 198 -110z m7
-80 c51 -8 100 -13 108 -10 9 4 28 -10 50 -37 l36 -43 -27 -6 c-15 -3 -31 -2
-37 2 -5 4 -42 8 -80 11 -60 3 -76 8 -107 33 -20 16 -36 30 -35 31 1 1 27 -4
57 -12 63 -16 170 -19 170 -4 0 6 -25 10 -56 10 -64 0 -191 27 -201 42 -4 8 0
9 12 5 10 -4 59 -14 110 -22z m2895 -179 l25 -18 -35 7 c-44 9 -60 22 -60 48
l0 20 23 -20 c12 -11 33 -28 47 -37z m-235 -76 c13 -6 15 -9 5 -9 -8 0 -22 4
-30 9 -18 12 -2 12 25 0z m-1417 -157 c18 -88 -11 -204 -63 -253 -21 -19 -32
-22 -84 -18 -33 2 -64 8 -68 12 -10 9 18 26 32 19 5 -4 7 -3 3 2 -4 4 12 29
36 55 47 51 86 118 106 188 7 23 17 42 21 42 4 0 12 -21 17 -47z m-167 -171
c-23 -33 -51 -58 -51 -46 0 8 60 74 68 74 2 0 -6 -13 -17 -28z m2612 -439 c-7
-2 -19 -2 -25 0 -7 3 -2 5 12 5 14 0 19 -2 13 -5z m215 0 c-15 -2 -42 -2 -60
0 -18 2 -6 4 27 4 33 0 48 -2 33 -4z m171 -211 c29 -2 61 2 85 12 30 12 36 13
27 2 -17 -20 -96 -39 -128 -31 -36 8 -93 44 -93 56 0 6 14 0 31 -12 18 -12 52
-24 78 -27z m-289 -136 c19 -7 44 -17 54 -21 15 -6 17 -5 11 5 -5 9 -4 11 4 6
6 -4 9 -11 6 -16 -3 -4 8 -16 23 -26 21 -14 24 -14 14 -2 -7 9 -9 18 -5 20 4
3 2 3 -4 2 -7 -2 -13 1 -13 6 0 6 9 10 20 10 11 0 20 -5 20 -11 0 -5 5 -7 10
-4 6 3 10 2 10 -3 0 -5 14 -15 30 -22 17 -7 33 -17 37 -23 4 -6 1 -7 -7 -2 -9
5 -11 4 -6 -4 4 -7 -2 -20 -16 -32 -13 -11 2 -4 32 15 129 81 255 69 342 -34
98 -114 71 -282 -80 -495 -62 -89 -179 -207 -259 -263 l-62 -42 -58 48 c-86
72 -192 205 -267 335 -16 26 -31 45 -35 43 -4 -3 -7 3 -8 12 0 9 -17 54 -37
99 -68 151 -60 266 23 347 62 61 146 80 221 52z m707 -43 c-3 -10 -5 -4 -5 12
0 17 2 24 5 18 2 -7 2 -21 0 -30z m427 -426 c-2 -63 -43 -221 -79 -302 -17
-40 -46 -79 -86 -117 -51 -50 -65 -58 -98 -58 -31 0 -40 5 -50 26 -9 21 -8 30
6 49 145 186 196 271 237 397 31 96 31 96 51 77 15 -15 20 -32 19 -72z m-1370
17 c3 -8 2 -12 -4 -9 -6 3 -10 10 -10 16 0 14 7 11 14 -7z m-345 -89 c0 -5 -6
1 -14 15 -8 14 -14 30 -14 35 0 6 6 -1 14 -15 8 -14 14 -29 14 -35z m-70 -132
c12 -33 12 -38 -5 -50 -52 -38 -102 22 -61 75 20 26 52 14 66 -25z m172 -25
c17 -24 18 -29 6 -19 -18 14 -42 51 -33 51 3 0 15 -15 27 -32z m-288 -187 c-2
-3 -16 8 -31 24 l-27 28 31 -24 c17 -13 30 -26 27 -28z m1466 -152 c-33 -27
-34 -27 -37 -6 -3 14 6 30 24 45 25 22 28 23 37 6 8 -14 3 -23 -24 -45z
m-1412 35 c-3 -3 -12 -4 -19 -1 -8 3 -5 6 6 6 11 1 17 -2 13 -5z m463 -159
c13 -14 21 -25 18 -25 -2 0 -15 11 -28 25 -13 14 -21 25 -18 25 2 0 15 -11 28
-25z m640 -52 c0 -5 -20 -21 -45 -36 -32 -21 -54 -27 -81 -25 -38 3 -37 3 37
35 81 34 89 37 89 26z m-390 -155 c-22 -33 -40 -65 -40 -69 0 -4 -16 -5 -35
-2 l-35 6 0 -94 c0 -53 -9 -139 -20 -198 -18 -90 -20 -127 -14 -275 6 -180 9
-160 -51 -491 -7 -38 -13 -60 -14 -47 -1 12 10 87 23 165 23 134 30 269 27
491 0 37 8 114 20 170 15 71 19 118 14 158 -3 32 -3 74 1 93 6 33 9 35 44 35
29 0 40 5 45 19 6 21 62 101 70 101 2 0 -13 -28 -35 -62z m-213 -1235 c-3 -10
-5 -4 -5 12 0 17 2 24 5 18 2 -7 2 -21 0 -30z m-10 -75 c-2 -13 -4 -5 -4 17
-1 22 1 32 4 23 2 -10 2 -28 0 -40z"/>
<path d="M1959 7073 c-13 -16 -12 -17 4 -4 9 7 17 15 17 17 0 8 -8 3 -21 -13z"/>
<path d="M4270 5270 c0 -5 5 -10 10 -10 6 0 10 5 10 10 0 6 -4 10 -10 10 -5 0
-10 -4 -10 -10z"/>
<path d="M4316 5271 c-4 -7 -5 -15 -2 -18 9 -9 19 4 14 18 -4 11 -6 11 -12 0z"/>
<path d="M4350 5240 c-18 -12 -2 -12 25 0 13 6 15 9 5 9 -8 0 -22 -4 -30 -9z"/>
<path d="M4260 5230 c0 -5 5 -10 10 -10 6 0 10 5 10 10 0 6 -4 10 -10 10 -5 0
-10 -4 -10 -10z"/>
<path d="M4292 5231 c4 -13 18 -16 19 -4 0 4 -5 9 -11 12 -7 2 -11 -2 -8 -8z"/>
<path d="M4555 5230 c3 -5 8 -10 11 -10 2 0 4 5 4 10 0 6 -5 10 -11 10 -5 0
-7 -4 -4 -10z"/>
<path d="M4089 5214 c-12 -15 -11 -16 11 -9 35 10 49 25 23 25 -11 0 -27 -7
-34 -16z"/>
<path d="M4235 5200 c-3 -5 -1 -10 4 -10 6 0 11 5 11 10 0 6 -2 10 -4 10 -3 0
-8 -4 -11 -10z"/>
<path d="M4338 5203 c7 -3 16 -2 19 1 4 3 -2 6 -13 5 -11 0 -14 -3 -6 -6z"/>
<path d="M4400 5199 c0 -5 5 -7 10 -4 6 3 10 8 10 11 0 2 -4 4 -10 4 -5 0 -10
-5 -10 -11z"/>
<path d="M4134 5185 c-5 -12 -10 -13 -20 -4 -11 9 -15 7 -20 -5 -6 -15 -8 -15
-20 1 -13 17 -15 17 -29 -1 -8 -11 -15 -25 -15 -32 0 -6 7 -17 15 -24 8 -7 15
-17 15 -22 0 -5 -10 0 -22 12 -12 11 -25 20 -28 20 -14 0 -19 -14 -9 -26 6 -8
7 -14 0 -18 -6 -4 -7 -14 -4 -22 5 -13 1 -15 -18 -9 -13 4 -30 12 -36 17 -10
8 -13 5 -13 -12 0 -15 5 -20 14 -17 8 3 13 -1 12 -10 0 -9 5 -18 12 -20 7 -3
12 3 12 14 0 11 3 14 8 7 4 -6 14 -14 22 -17 11 -4 10 -7 -7 -12 -23 -7 -32
-25 -12 -25 5 0 7 -4 4 -10 -3 -5 0 -10 8 -10 8 0 17 7 21 15 3 8 11 15 18 15
9 0 8 -3 -2 -10 -8 -5 -10 -10 -5 -10 6 0 9 -34 7 -90 -3 -84 -2 -91 22 -115
21 -21 34 -25 85 -25 33 0 63 -4 66 -10 3 -5 14 -10 24 -10 12 0 25 -14 36
-37 9 -21 23 -50 30 -65 13 -26 12 -28 -8 -29 -21 0 -21 -1 -2 -8 11 -5 27 -6
35 -4 8 2 -7 -7 -35 -20 -43 -21 -141 -112 -215 -202 -14 -16 -13 -17 10 -11
20 6 22 5 8 -4 -9 -6 -43 -15 -75 -21 -58 -11 -97 -34 -87 -50 8 -14 34 -10
34 5 0 16 21 26 58 26 15 1 44 7 65 15 39 13 39 13 18 -6 -25 -23 -27 -31 -6
-23 11 4 13 2 9 -9 -4 -11 1 -15 18 -15 13 0 41 -5 63 -11 89 -24 240 -3 321
44 49 29 112 96 119 127 2 13 6 39 8 58 3 28 8 35 24 34 13 0 19 4 16 13 -7
18 -17 16 -55 -7 -39 -24 -62 -27 -30 -4 23 16 23 17 5 36 -24 27 -106 68
-136 68 -13 0 -33 -11 -45 -25 -12 -14 -30 -25 -39 -24 -15 0 -14 2 3 9 26 10
41 30 23 30 -7 0 -10 2 -7 6 3 3 -1 26 -8 51 -17 55 -19 106 -4 83 7 -11 10
-11 10 -2 0 14 47 62 61 62 9 0 24 40 21 57 -2 6 2 14 8 18 17 11 11 54 -12
88 -43 61 -66 86 -72 79 -4 -3 -4 1 0 11 4 12 1 17 -11 17 -14 0 -15 3 -5 15
11 13 7 15 -23 15 -30 0 -34 -3 -30 -19 3 -11 12 -22 20 -25 8 -3 12 -10 8
-15 -3 -5 -1 -12 5 -16 5 -3 10 -11 10 -16 0 -6 -5 -7 -11 -3 -8 4 -9 0 -4
-15 5 -18 2 -21 -19 -21 -14 0 -27 -4 -30 -9 -3 -5 -15 -7 -26 -4 -15 4 -18
11 -14 29 4 15 2 24 -5 24 -6 0 -11 -7 -11 -15 0 -8 -5 -15 -10 -15 -6 0 -10
6 -9 13 4 30 -2 46 -18 50 -15 3 -12 6 10 17 17 8 23 16 16 20 -13 9 -79 -10
-79 -22 0 -4 -4 -8 -10 -8 -5 0 -7 6 -4 14 4 10 -3 16 -18 19 -22 4 -22 4 2 4
14 1 28 2 33 3 4 1 10 4 15 5 4 1 22 6 40 10 17 4 32 12 32 16 0 5 -11 7 -25
3 -25 -6 -35 8 -15 21 15 9 12 25 -4 25 -8 0 -14 -6 -13 -12 1 -38 -4 -46 -28
-44 -14 0 -25 4 -25 9 0 4 -9 7 -20 7 -11 0 -20 -5 -20 -11 0 -5 -4 -7 -10 -4
-18 11 -11 22 18 28 31 7 63 47 37 47 -9 0 -18 -7 -21 -15z m-54 -55 c0 -5 -5
-10 -11 -10 -5 0 -7 5 -4 10 3 6 8 10 11 10 2 0 4 -4 4 -10z m80 -187 c0 -8
-7 -16 -15 -19 -17 -7 -47 14 -39 27 8 13 54 6 54 -8z m317 -35 c-3 -8 -6 -5
-6 6 -1 11 2 17 5 13 3 -3 4 -12 1 -19z m-17 -65 c0 -5 -13 -17 -28 -27 l-27
-19 24 26 c26 28 31 32 31 20z m175 -353 c-3 -5 -12 -10 -18 -10 -7 0 -6 4 3
10 19 12 23 12 15 0z m-14 -51 c-5 -13 -10 -19 -10 -12 -1 15 10 45 15 40 3
-2 0 -15 -5 -28z m-27 -54 c-9 -14 -18 -25 -21 -25 -5 0 5 18 20 38 17 22 18
13 1 -13z m-449 -25 c-3 -5 -12 -10 -18 -10 -7 0 -6 4 3 10 19 12 23 12 15 0z
m213 -40 c-30 -16 -66 -20 -71 -7 -4 10 7 14 40 14 24 0 39 -3 31 -7z m86 -4
c-11 -8 -34 -18 -50 -21 -28 -7 -28 -6 6 13 42 23 75 29 44 8z"/>
<path d="M4415 5180 c-3 -5 1 -10 9 -10 9 0 16 5 16 10 0 6 -4 10 -9 10 -6 0
-13 -4 -16 -10z"/>
<path d="M4255 5170 c-3 -5 -1 -10 4 -10 6 0 11 5 11 10 0 6 -2 10 -4 10 -3 0
-8 -4 -11 -10z"/>
<path d="M4310 5170 c6 -4 8 -15 4 -25 -7 -16 -3 -17 26 -12 18 4 36 7 41 7 5
0 9 5 9 11 0 6 -7 9 -15 5 -9 -3 -15 0 -15 9 0 9 -11 13 -31 13 -16 -1 -25 -4
-19 -8z"/>
<path d="M3689 5153 c-13 -16 -12 -17 4 -4 16 13 21 21 13 21 -2 0 -10 -8 -17
-17z"/>
<path d="M4160 5155 c-10 -12 -10 -15 3 -15 8 0 17 7 21 15 3 8 2 15 -3 15 -5
0 -14 -7 -21 -15z"/>
<path d="M4290 5116 c0 -9 5 -16 10 -16 6 0 10 4 10 9 0 6 -4 13 -10 16 -5 3
-10 -1 -10 -9z"/>
<path d="M4850 5100 c0 -13 5 -20 13 -17 6 2 12 10 12 17 0 7 -6 15 -12 18 -8
2 -13 -5 -13 -18z"/>
<path d="M3965 5100 c-4 -6 -3 -16 3 -22 6 -6 12 -6 17 2 4 6 3 16 -3 22 -6 6
-12 6 -17 -2z"/>
<path d="M4420 5090 c0 -5 5 -10 11 -10 5 0 7 5 4 10 -3 6 -8 10 -11 10 -2 0
-4 -4 -4 -10z"/>
<path d="M4530 5080 c0 -5 5 -10 11 -10 5 0 7 5 4 10 -3 6 -8 10 -11 10 -2 0
-4 -4 -4 -10z"/>
<path d="M4580 5080 c0 -5 5 -10 10 -10 6 0 10 5 10 10 0 6 -4 10 -10 10 -5 0
-10 -4 -10 -10z"/>
<path d="M4440 5050 c0 -5 5 -10 10 -10 6 0 10 5 10 10 0 6 -4 10 -10 10 -5 0
-10 -4 -10 -10z"/>
<path d="M3910 5024 c0 -3 6 -12 14 -20 8 -7 16 -19 19 -26 2 -7 8 -10 12 -6
4 4 -1 18 -12 32 -17 24 -33 33 -33 20z"/>
<path d="M3890 4988 c0 -19 26 -42 34 -30 3 5 -3 17 -14 27 -17 15 -20 16 -20
3z"/>
<path d="M3860 4973 c0 -15 19 -37 26 -31 3 4 -1 14 -10 23 -9 9 -16 13 -16 8z"/>
<path d="M3852 4920 c12 -19 28 -27 28 -14 0 7 -27 34 -34 34 -4 0 -1 -9 6
-20z"/>
<path d="M3900 4930 c0 -5 5 -10 11 -10 5 0 7 5 4 10 -3 6 -8 10 -11 10 -2 0
-4 -4 -4 -10z"/>
<path d="M3790 4900 c0 -5 4 -10 9 -10 6 0 13 5 16 10 3 6 -1 10 -9 10 -9 0
-16 -4 -16 -10z"/>
<path d="M3820 4870 c0 -5 5 -10 10 -10 6 0 10 5 10 10 0 6 -4 10 -10 10 -5 0
-10 -4 -10 -10z"/>
<path d="M3777 4852 c-25 -27 -21 -35 8 -16 25 16 33 34 17 34 -5 0 -16 -8
-25 -18z"/>
<path d="M3706 4753 c16 -17 29 -16 43 1 10 12 6 14 -22 13 -28 -1 -32 -3 -21
-14z"/>
<path d="M3674 4689 c-3 -6 -14 -9 -24 -6 -12 3 -22 -4 -30 -19 -7 -13 -17
-21 -22 -18 -4 3 -8 1 -8 -5 0 -12 77 -8 88 4 4 5 -1 5 -10 2 -10 -4 -18 -2
-18 4 0 6 14 16 30 22 17 6 30 15 30 19 0 12 -28 10 -36 -3z"/>
<path d="M3520 4540 c0 -5 7 -10 15 -10 8 0 15 5 15 10 0 6 -7 10 -15 10 -8 0
-15 -4 -15 -10z"/>
<path d="M4827 4463 c3 -7 6 -13 8 -13 2 0 5 6 8 13 3 8 -1 14 -8 14 -7 0 -11
-6 -8 -14z"/>
<path d="M4860 4465 c-7 -9 -11 -17 -9 -20 3 -2 10 5 17 15 14 24 10 26 -8 5z"/>
<path d="M4640 4370 c0 -5 5 -10 10 -10 6 0 10 5 10 10 0 6 -4 10 -10 10 -5 0
-10 -4 -10 -10z"/>
<path d="M4450 4250 c-9 -6 -10 -10 -3 -10 6 0 15 5 18 10 8 12 4 12 -15 0z"/>
<path d="M4480 4195 c-80 -29 -160 -68 -160 -77 0 -11 18 -10 25 2 3 5 13 6
21 3 12 -4 7 -10 -16 -21 -31 -15 -32 -16 -11 -24 27 -10 94 -6 102 5 15 21
135 40 155 25 19 -14 66 13 61 34 -3 10 -1 15 4 12 18 -11 21 27 4 46 -25 27
-101 25 -185 -5z"/>
<path d="M3059 5973 c-13 -16 -12 -17 4 -4 9 7 17 15 17 17 0 8 -8 3 -21 -13z"/>
<path d="M5708 6005 c11 -16 35 -61 55 -100 19 -38 47 -90 61 -115 23 -39 26
-41 20 -15 -3 17 -15 42 -25 57 -13 19 -15 29 -7 34 6 4 9 3 6 -2 -2 -5 11
-25 30 -44 34 -34 35 -34 17 -5 -25 41 -95 131 -140 180 -28 31 -32 33 -17 10z
m102 -131 c0 -14 -18 1 -34 29 l-19 32 26 -28 c15 -15 27 -30 27 -33z"/>
<path d="M5906 5727 c3 -10 9 -15 12 -12 3 3 0 11 -7 18 -10 9 -11 8 -5 -6z"/>
<path d="M5860 5725 c0 -5 5 -17 10 -25 5 -8 10 -10 10 -5 0 6 -5 17 -10 25
-5 8 -10 11 -10 5z"/>
<path d="M4684 5518 c-3 -4 -2 -8 3 -8 21 -2 -78 -32 -127 -40 l-55 -8 60 3
c33 3 68 5 79 5 10 1 15 4 12 7 -4 4 8 12 26 17 34 12 49 33 23 33 -9 0 -18
-4 -21 -9z"/>
<path d="M3480 5129 l-25 -20 25 12 c14 7 29 12 33 11 5 -1 6 2 2 8 -8 13 -5
13 -35 -11z"/>
<path d="M5452 4810 c-18 -29 -15 -38 4 -12 9 13 14 25 12 27 -2 2 -9 -5 -16
-15z"/>
<path d="M1309 4436 c30 -31 36 -66 8 -49 -7 3 -3 -3 7 -15 11 -12 24 -22 30
-22 6 0 3 5 -7 11 -9 6 -15 14 -12 20 9 14 27 11 19 -3 -4 -7 -4 -10 1 -6 4 4
15 2 24 -4 9 -7 -9 14 -39 45 -30 31 -56 57 -59 57 -3 0 10 -15 28 -34z"/>
<path d="M1415 4340 c10 -11 20 -20 23 -20 3 0 -3 9 -13 20 -10 11 -20 20 -23
20 -3 0 3 -9 13 -20z"/>
<path d="M1380 4340 c0 -5 5 -10 11 -10 5 0 7 5 4 10 -3 6 -8 10 -11 10 -2 0
-4 -4 -4 -10z"/>
<path d="M1920 4265 c0 -5 5 -17 10 -25 5 -8 10 -10 10 -5 0 6 -5 17 -10 25
-5 8 -10 11 -10 5z"/>
<path d="M1940 4214 c0 -6 7 -19 16 -30 14 -18 14 -18 3 6 -14 31 -19 36 -19
24z"/>
<path d="M3321 3678 c1 -7 5 -24 9 -38 8 -24 8 -24 9 7 1 17 -3 35 -9 38 -5 3
-10 0 -9 -7z"/>
<path d="M3306 3633 c-6 -14 -5 -15 5 -6 7 7 10 15 7 18 -3 3 -9 -2 -12 -12z"/>
<path d="M5723 2699 c-26 -13 -54 -38 -73 -67 -27 -41 -30 -52 -28 -121 l1
-76 6 82 c6 71 11 87 37 119 47 58 87 76 166 72 37 -2 62 0 55 4 -25 16 -121
8 -164 -13z"/>
<path d="M6165 2636 c-27 -13 -61 -36 -75 -51 -21 -24 -18 -22 23 8 54 41 102
57 167 56 37 -1 41 -2 20 -9 -16 -5 -19 -8 -8 -9 23 -1 34 -21 17 -32 -11 -7
-9 -9 7 -9 28 0 84 -63 84 -93 0 -13 -6 -32 -14 -43 -10 -13 -11 -23 -4 -31 7
-9 7 -13 -1 -13 -7 0 -8 -8 -1 -26 6 -14 10 -52 10 -84 0 -41 4 -59 14 -63 8
-3 17 -1 20 6 2 7 5 8 5 2 1 -5 -9 -26 -21 -45 -12 -19 -23 -38 -24 -42 -1 -5
-2 -11 -3 -14 0 -4 -7 -1 -15 5 -11 10 -17 8 -25 -6 -6 -10 -11 -15 -11 -11 0
8 -89 -23 -122 -42 -10 -6 -25 -10 -33 -10 -8 0 -15 -6 -15 -14 0 -7 -9 -16
-21 -19 -11 -3 -23 -15 -26 -26 -5 -21 -33 -30 -33 -10 0 5 -5 7 -11 3 -8 -4
-7 -9 2 -15 9 -5 2 -13 -25 -25 -32 -16 -38 -16 -46 -4 -5 8 -13 11 -17 6 -4
-5 -2 -11 5 -13 6 -3 12 -14 12 -26 0 -16 -3 -18 -9 -9 -4 7 -12 12 -17 10 -5
-2 -22 9 -37 25 -26 25 -37 32 -37 23 0 -1 14 -17 30 -34 17 -18 30 -37 30
-44 -1 -17 -57 48 -132 152 -66 92 -93 123 -63 75 47 -78 115 -166 178 -232
59 -61 74 -72 98 -69 16 2 26 -1 23 -6 -3 -5 -13 -7 -21 -4 -8 3 -11 1 -8 -4
9 -14 16 -13 53 10 26 16 31 24 23 34 -8 9 -7 13 4 13 8 0 12 -4 9 -9 -3 -4 0
-8 6 -8 15 0 200 186 200 201 0 8 -5 7 -17 -2 -16 -13 -17 -12 -4 3 7 10 17
16 21 13 5 -3 24 16 43 42 81 112 135 266 121 346 -12 71 -39 122 -69 127 -5
1 -12 4 -15 7 -3 4 2 2 10 -2 13 -8 13 -7 1 9 -48 58 -168 74 -256 32z m201
-12 c18 -14 18 -14 -6 -3 -31 14 -36 19 -24 19 6 0 19 -7 30 -16z m-6 -504
c-6 -10 -16 -22 -23 -26 -9 -5 -9 -4 1 7 6 7 12 21 12 32 0 10 5 15 10 12 7
-4 7 -12 0 -25z m-90 -113 c0 -2 -12 -14 -27 -28 l-28 -24 24 28 c23 25 31 32
31 24z m-285 -125 c-3 -3 -11 0 -18 7 -9 10 -8 11 6 5 10 -3 15 -9 12 -12z"/>
<path d="M5631 2414 c0 -11 3 -14 6 -6 3 7 2 16 -1 19 -3 4 -6 -2 -5 -13z"/>
<path d="M6375 2220 c4 -6 1 -18 -6 -26 -6 -8 -10 -17 -7 -19 7 -7 48 34 48
48 0 7 -4 6 -10 -3 -6 -10 -10 -11 -10 -2 0 6 -5 12 -11 12 -5 0 -7 -5 -4 -10z"/>
<path d="M5856 2047 c16 -19 31 -33 32 -31 6 5 -32 53 -47 59 -7 3 0 -10 15
-28z"/>
<path d="M7238 7833 c7 -3 16 -2 19 1 4 3 -2 6 -13 5 -11 0 -14 -3 -6 -6z"/>
<path d="M140 7800 c0 -11 5 -20 10 -20 6 0 10 9 10 20 0 11 -4 20 -10 20 -5
0 -10 -9 -10 -20z"/>
<path d="M7692 7769 c-10 -16 -10 -24 -1 -35 9 -11 9 -17 -1 -29 -17 -21 -5
-31 15 -12 17 17 20 47 5 47 -5 0 -10 5 -10 11 0 6 9 8 21 4 18 -6 20 -5 10
14 -15 26 -23 26 -39 0z"/>
<path d="M7640 7748 c-11 -12 -20 -28 -20 -35 0 -7 -4 -13 -10 -13 -5 0 -10 9
-10 20 0 11 -4 20 -10 20 -5 0 -10 -4 -10 -10 0 -18 -32 -11 -51 11 -15 18
-21 20 -34 9 -12 -10 -18 -10 -32 1 -13 11 -17 11 -20 2 -3 -7 -12 -13 -21
-14 -12 0 -10 -3 6 -10 13 -5 28 -6 33 -3 16 9 59 -5 59 -19 0 -9 -22 -13 -80
-12 -44 0 -80 -3 -80 -7 0 -5 14 -8 31 -8 19 0 37 -7 45 -17 7 -10 16 -14 20
-10 5 4 3 11 -3 15 -6 4 6 8 28 8 32 1 37 -1 28 -12 -6 -8 -18 -14 -25 -14 -8
0 -14 -4 -14 -10 0 -26 52 1 62 31 5 15 48 -10 48 -29 0 -10 -5 -10 -20 -2
-28 15 -27 -11 1 -29 18 -11 23 -11 30 1 5 7 9 20 9 28 1 25 25 49 39 41 9 -6
10 -11 2 -15 -6 -4 -11 -14 -11 -22 0 -20 30 -14 44 8 8 13 6 22 -12 41 -23
24 -29 47 -12 47 5 0 14 -8 19 -17 8 -15 10 -12 8 14 -2 39 -9 41 -37 11z"/>
<path d="M7238 7753 c7 -3 16 -2 19 1 4 3 -2 6 -13 5 -11 0 -14 -3 -6 -6z"/>
<path d="M7750 7721 c0 -11 4 -22 9 -25 4 -3 6 6 3 19 -5 30 -12 33 -12 6z"/>
<path d="M414 7717 c-6 -7 -13 -23 -16 -35 -6 -20 -4 -21 9 -10 9 7 26 11 38
10 13 -2 25 3 28 12 4 10 1 13 -9 9 -8 -3 -20 2 -27 10 -9 12 -14 13 -23 4z"/>
<path d="M490 7704 c0 -8 5 -12 10 -9 6 4 8 11 5 16 -9 14 -15 11 -15 -7z"/>
<path d="M7713 7683 c-21 -8 -15 -33 7 -33 13 0 20 7 20 20 0 20 -5 23 -27 13z"/>
<path d="M358 7673 c7 -3 16 -2 19 1 4 3 -2 6 -13 5 -11 0 -14 -3 -6 -6z"/>
<path d="M7345 7660 c28 -12 37 -12 30 0 -3 6 -16 10 -28 9 -21 0 -21 -1 -2
-9z"/>
<path d="M7763 7650 c-3 -11 -9 -20 -14 -20 -14 0 -11 -28 4 -33 9 -3 7 -10
-6 -25 -13 -14 -15 -22 -7 -27 7 -4 17 -1 22 6 7 10 8 9 3 -6 -11 -28 -8 -57
6 -66 7 -4 9 -14 6 -23 -5 -12 0 -16 17 -16 12 0 31 -9 41 -20 10 -11 24 -20
31 -20 7 0 14 -5 16 -12 8 -22 38 1 38 28 0 22 3 25 23 20 12 -3 25 -6 30 -6
4 0 7 -10 7 -22 l0 -23 -19 24 c-13 17 -20 20 -26 11 -5 -8 3 -21 21 -36 16
-13 31 -23 34 -24 3 0 7 40 8 90 2 75 0 89 -12 84 -7 -3 -17 -1 -21 5 -10 17
-33 13 -37 -6 -3 -13 -10 -6 -26 23 -11 23 -18 45 -14 48 3 4 -1 4 -10 1 -15
-6 -15 -10 -2 -40 16 -40 17 -45 5 -45 -5 0 -11 9 -14 20 -3 11 -10 20 -16 20
-8 0 -9 -6 -1 -19 13 -26 13 -31 -4 -31 -14 0 -15 58 -1 80 3 5 -1 10 -9 10
-9 0 -16 7 -16 15 0 14 -34 55 -46 55 -3 0 -8 -9 -11 -20z m27 -40 c0 -5 -5
-10 -11 -10 -5 0 -7 5 -4 10 3 6 8 10 11 10 2 0 4 -4 4 -10z m20 -40 c0 -5 -4
-10 -10 -10 -5 0 -10 5 -10 10 0 6 5 10 10 10 6 0 10 -4 10 -10z m-20 -60 c0
-5 -2 -10 -4 -10 -3 0 -8 5 -11 10 -3 6 -1 10 4 10 6 0 11 -4 11 -10z m50 -43
c0 -7 17 -21 38 -32 22 -11 32 -20 23 -23 -7 -2 -16 0 -20 5 -3 5 -21 16 -38
24 -33 14 -38 20 -26 32 11 11 23 8 23 -6z"/>
<path d="M7857 7639 c-22 -25 -18 -34 8 -16 10 8 16 19 14 26 -3 7 -11 4 -22
-10z"/>
<path d="M7398 7643 c7 -3 16 -2 19 1 4 3 -2 6 -13 5 -11 0 -14 -3 -6 -6z"/>
<path d="M7905 7630 c-3 -5 -1 -10 4 -10 6 0 11 5 11 10 0 6 -2 10 -4 10 -3 0
-8 -4 -11 -10z"/>
<path d="M7215 7620 c-3 -5 -1 -10 4 -10 6 0 11 5 11 10 0 6 -2 10 -4 10 -3 0
-8 -4 -11 -10z"/>
<path d="M7661 7604 c-23 -29 -27 -44 -11 -44 6 0 10 -7 10 -15 0 -9 6 -18 14
-21 8 -3 12 -12 9 -21 -5 -12 -1 -14 17 -8 19 6 22 4 18 -12 -3 -10 1 -25 9
-32 20 -18 30 -5 15 19 -7 11 -12 27 -12 36 0 10 -5 14 -15 10 -8 -3 -15 -2
-15 2 0 5 -10 19 -22 32 l-22 23 22 18 c23 18 29 39 13 39 -5 0 -19 -12 -30
-26z"/>
<path d="M7516 7602 c-2 -4 -1 -14 5 -22 5 -8 9 -13 10 -10 0 3 2 13 4 23 3
17 -10 24 -19 9z"/>
<path d="M7920 7594 c0 -8 5 -12 10 -9 6 4 8 11 5 16 -9 14 -15 11 -15 -7z"/>
<path d="M7560 7580 c0 -13 28 -25 38 -16 3 4 0 11 -8 16 -20 13 -30 12 -30 0z"/>
<path d="M7970 7577 c0 -8 7 -18 16 -21 11 -4 14 -1 12 11 -4 21 -28 30 -28
10z"/>
<path d="M30 7560 c0 -5 5 -10 10 -10 6 0 10 5 10 10 0 6 -4 10 -10 10 -5 0
-10 -4 -10 -10z"/>
<path d="M7535 7540 c3 -5 10 -10 16 -10 5 0 9 5 9 10 0 6 -7 10 -16 10 -8 0
-12 -4 -9 -10z"/>
<path d="M2 7510 c0 -14 2 -19 5 -12 2 6 2 18 0 25 -3 6 -5 1 -5 -13z"/>
<path d="M7576 7501 c-4 -7 -5 -15 -2 -18 9 -9 19 4 14 18 -4 11 -6 11 -12 0z"/>
<path d="M7585 7460 c3 -5 8 -10 11 -10 2 0 4 5 4 10 0 6 -5 10 -11 10 -5 0
-7 -4 -4 -10z"/>
<path d="M188 7433 c7 -3 16 -2 19 1 4 3 -2 6 -13 5 -11 0 -14 -3 -6 -6z"/>
<path d="M193 7402 c-18 -19 -33 -36 -33 -38 0 -13 31 0 53 21 14 14 27 21 29
16 1 -6 13 1 24 14 l22 24 -32 -2 c-20 -1 -42 -13 -63 -35z"/>
<path d="M7498 7433 c7 -3 16 -2 19 1 4 3 -2 6 -13 5 -11 0 -14 -3 -6 -6z"/>
<path d="M134 7409 c-8 -14 11 -33 25 -25 16 10 13 36 -3 36 -8 0 -18 -5 -22
-11z"/>
<path d="M7540 7410 c0 -5 9 -10 20 -10 11 0 20 5 20 10 0 6 -9 10 -20 10 -11
0 -20 -4 -20 -10z"/>
<path d="M7770 7384 c0 -31 23 -28 28 4 2 15 -2 22 -12 22 -11 0 -16 -9 -16
-26z"/>
<path d="M7837 7384 c-4 -4 -6 -19 -6 -33 1 -17 3 -20 6 -8 2 9 11 17 20 17 8
0 13 5 11 12 -5 14 -22 21 -31 12z"/>
<path d="M7915 7370 c-3 -5 -1 -10 4 -10 6 0 11 5 11 10 0 6 -2 10 -4 10 -3 0
-8 -4 -11 -10z"/>
<path d="M7520 7355 c0 -8 2 -15 4 -15 2 0 6 7 10 15 3 8 1 15 -4 15 -6 0 -10
-7 -10 -15z"/>
<path d="M7580 7355 c0 -9 -9 -15 -21 -15 -12 0 -19 -5 -17 -12 3 -7 17 -13
31 -13 23 -1 27 3 25 27 -2 29 -18 40 -18 13z"/>
<path d="M7690 7350 c19 -13 30 -13 30 0 0 6 -10 10 -22 10 -19 0 -20 -2 -8
-10z"/>
<path d="M7940 7334 c-11 -12 -10 -18 3 -32 16 -15 18 -15 34 0 13 14 14 20 3
32 -7 9 -16 16 -20 16 -4 0 -13 -7 -20 -16z"/>
<path d="M7744 7297 c1 -17 7 -23 26 -24 15 0 18 1 7 4 -12 3 -16 10 -12 24 4
13 2 19 -8 19 -9 0 -14 -9 -13 -23z"/>
<path d="M7680 7286 c0 -2 7 -9 15 -16 9 -7 15 -8 15 -2 0 5 -7 12 -15 16 -8
3 -15 4 -15 2z"/>
<path d="M7915 7270 c3 -5 8 -10 11 -10 2 0 4 5 4 10 0 6 -5 10 -11 10 -5 0
-7 -4 -4 -10z"/>
<path d="M7960 7260 c0 -11 5 -20 10 -20 6 0 10 -9 10 -20 0 -11 5 -20 10 -20
11 0 13 24 4 58 -8 27 -34 29 -34 2z"/>
<path d="M7827 7264 c-8 -8 22 -39 53 -53 l25 -12 -25 21 c-14 12 -30 28 -36
35 -6 8 -14 12 -17 9z"/>
<path d="M7638 7243 c7 -3 16 -2 19 1 4 3 -2 6 -13 5 -11 0 -14 -3 -6 -6z"/>
<path d="M7940 7215 c0 -8 5 -15 10 -15 6 0 10 7 10 15 0 8 -4 15 -10 15 -5 0
-10 -7 -10 -15z"/>
<path d="M7815 7210 c-3 -5 3 -10 15 -10 12 0 18 5 15 10 -3 6 -10 10 -15 10
-5 0 -12 -4 -15 -10z"/>
<path d="M65 7200 c-3 -5 -2 -10 4 -10 5 0 13 5 16 10 3 6 2 10 -4 10 -5 0
-13 -4 -16 -10z"/>
<path d="M135 7170 l-30 -8 33 -1 c17 0 32 4 32 9 0 6 -1 9 -2 9 -2 -1 -16 -5
-33 -9z"/>
<path d="M7808 7160 c25 -24 32 -25 32 -6 0 8 -7 17 -16 20 -31 12 -38 6 -16
-14z"/>
<path d="M60 7160 c0 -5 5 -10 10 -10 6 0 10 -9 10 -20 0 -11 6 -20 14 -20 8
0 16 -6 19 -12 3 -10 12 -9 38 3 l34 17 -42 11 c-23 6 -49 18 -57 26 -17 17
-26 19 -26 5z m87 -46 c-3 -3 -12 -4 -19 -1 -8 3 -5 6 6 6 11 1 17 -2 13 -5z"/>
<path d="M48 7123 c7 -3 16 -2 19 1 4 3 -2 6 -13 5 -11 0 -14 -3 -6 -6z"/>
<path d="M7834 7104 c3 -9 6 -27 6 -40 0 -13 5 -24 10 -24 6 0 10 18 10 40 0
30 -4 40 -16 40 -11 0 -14 -5 -10 -16z"/>
<path d="M7900 7080 c0 -22 5 -40 10 -40 6 0 10 18 10 40 0 22 -4 40 -10 40
-5 0 -10 -18 -10 -40z"/>
<path d="M83 7079 c1 -10 7 -19 14 -19 18 0 16 27 -1 33 -10 4 -14 0 -13 -14z"/>
<path d="M7872 7003 c-1 -24 -7 -43 -13 -43 -5 0 -7 -5 -3 -11 12 -20 26 18
21 59 l-4 37 -1 -42z"/>
<path d="M7896 6892 c-3 -6 -1 -14 5 -17 14 -9 20 -2 10 14 -6 8 -11 9 -15 3z"/>
<path d="M7940 6789 c0 -18 28 -39 44 -33 9 3 16 16 16 27 0 20 0 20 -14 1
-14 -18 -15 -18 -21 -1 -8 19 -25 23 -25 6z"/>
<path d="M6021 5810 c0 -3 6 -27 14 -55 8 -30 14 -40 14 -25 0 20 -26 97 -28
80z"/>
<path d="M6053 5645 c0 -22 2 -30 4 -17 2 12 2 30 0 40 -3 9 -5 -1 -4 -23z"/>
<path d="M1695 3993 c58 -138 173 -235 294 -250 55 -6 151 18 172 43 12 15 10
15 -21 -1 -20 -10 -65 -20 -106 -23 -62 -4 -80 -1 -127 21 -94 43 -173 133
-201 230 -3 9 -10 17 -16 17 -6 0 -4 -15 5 -37z"/>
<path d="M2483 3742 c0 -12 5 -22 9 -22 11 0 10 12 -2 30 -7 12 -9 10 -7 -8z"/>
<path d="M3652 3645 c0 -16 2 -22 5 -12 2 9 2 23 0 30 -3 6 -5 -1 -5 -18z"/>
<path d="M2665 3593 c-22 -19 -31 -31 -20 -25 19 9 74 63 64 62 -2 -1 -22 -17
-44 -37z"/>
<path d="M3530 3510 c-6 -11 -8 -20 -6 -20 3 0 10 9 16 20 6 11 8 20 6 20 -3
0 -10 -9 -16 -20z"/>
<path d="M7978 493 c-10 -2 -18 -10 -18 -18 0 -16 -28 -28 -43 -18 -7 4 -8 0
-3 -12 5 -15 4 -16 -9 -5 -21 18 -18 0 5 -30 11 -14 20 -31 20 -37 0 -7 5 -13
10 -13 6 0 10 -5 10 -11 0 -7 10 -20 21 -30 l22 -19 -24 -9 -24 -10 28 0 27
-1 0 110 c0 61 -1 109 -2 109 -2 -1 -11 -3 -20 -6z m-8 -110 c0 9 5 17 10 17
14 0 12 -27 -2 -33 -10 -4 -10 -7 0 -18 6 -7 12 -17 12 -23 0 -5 -11 5 -25 24
-14 19 -25 38 -25 44 0 5 7 1 15 -10 13 -17 14 -17 15 -1z"/>
<path d="M6 403 c-3 -8 -6 -37 -6 -64 0 -46 1 -48 19 -38 10 7 26 9 37 5 18
-8 18 -8 0 -15 -15 -6 -16 -10 -7 -16 15 -9 33 13 26 33 -3 9 0 10 15 2 24
-13 37 5 13 19 -14 7 -15 13 -6 21 14 15 -12 43 -55 58 -25 8 -32 8 -36 -5z"/>
<path d="M7760 181 c0 -5 6 -12 13 -14 8 -4 9 -8 1 -14 -19 -14 -25 -43 -9
-43 8 0 19 -9 25 -20 6 -12 17 -17 28 -14 14 5 14 4 3 -4 -12 -9 -12 -13 -2
-26 15 -18 5 -41 -12 -28 -7 5 -24 12 -39 16 -16 3 -28 11 -28 17 0 6 7 9 15
6 22 -9 30 14 10 30 -25 17 -36 17 -29 -2 7 -18 -7 -20 -24 -3 -9 9 -15 9 -24
0 -9 -9 -9 -12 -1 -12 8 0 10 -12 6 -35 l-6 -35 42 0 c26 0 40 4 36 10 -3 6
-1 10 4 10 6 0 11 -5 11 -10 0 -7 39 -10 109 -9 l110 2 -1 83 0 82 -46 4 c-26
3 -55 0 -66 -5 -12 -6 -26 -5 -40 1 -31 15 -86 23 -86 13z"/>
<path d="M23 163 c-22 -4 -23 -9 -23 -84 l0 -79 80 0 c67 0 80 3 80 16 0 10 6
14 15 10 8 -3 15 -1 15 5 0 7 -10 9 -25 5 -15 -4 -25 -2 -25 4 0 6 5 8 10 5 6
-3 10 -2 10 4 0 12 27 8 42 -7 8 -8 8 -15 -2 -27 -10 -13 -9 -15 9 -15 18 0
19 3 11 25 -6 15 -6 34 0 49 9 26 -6 48 -37 52 -7 1 -21 8 -29 15 -8 7 -27 14
-42 15 -15 2 -36 5 -47 7 -11 2 -30 2 -42 0z m81 -56 c14 -20 21 -37 16 -37
-13 0 -59 63 -53 73 6 10 6 11 37 -36z"/>
</g>
</svg>
